{
  "accessors": [
    {
      "bufferView": 1,
      "componentType": 5126,
      "count": 404,
      "max": [
        194.76324462890625,
        134.76837158203125,
        31.281791687011719
      ],
      "min": [
        -169.68624877929688,
        -52.320991516113281,
        5.7323646545410156
      ],
      "type": "VEC3"
    },
    {
      "bufferView": 1,
      "byteOffset": 4848,
      "componentType": 5126,
      "count": 404,
      "max": [
        1,
        1,
        1
      ],
      "min": [
        -0.99953097105026245,
        -1,
        -1
      ],
      "type": "VEC3"
    },
    {
      "bufferView": 2,
      "componentType": 5126,
      "count": 404,
      "max": [
        1,
        1,
        0.53402507305145264,
        1
      ],
      "min": [
        -0.99999666213989258,
        -0.99953097105026245,
        -0.53402429819107056,
        1
      ],
      "type": "VEC4"
    },
    {
      "bufferView": 0,
      "componentType": 5125,
      "count": 780,
      "max": [
        403
      ],
      "min": [
        0
      ],
      "type": "SCALAR"
    },
    {
      "bufferView": 1,
      "byteOffset": 9696,
      "componentType": 5126,
      "count": 512,
      "max": [
        40.114822387695312,
        -15.195777893066406,
        88.926826477050781
      ],
      "min": [
        -40.114788055419922,
        -108.66783142089844,
        -200.50302124023438
      ],
      "type": "VEC3"
    },
    {
      "bufferView": 1,
      "byteOffset": 15840,
      "componentType": 5126,
      "count": 512,
      "max": [
        1,
        1,
        1
      ],
      "min": [
        -1,
        -1,
        -1
      ],
      "type": "VEC3"
    },
    {
      "bufferView": 2,
      "byteOffset": 6464,
      "componentType": 5126,
      "count": 512,
      "max": [
        1,
        1,
        0.39349287748336792,
        1
      ],
      "min": [
        -1,
        -1,
        -0.28947532176971436,
        -1
      ],
      "type": "VEC4"
    },
    {
      "bufferView": 0,
      "byteOffset": 3120,
      "componentType": 5125,
      "count": 1488,
      "max": [
        511
      ],
      "min": [
        0
      ],
      "type": "SCALAR"
    },
    {
      "bufferView": 1,
      "byteOffset": 21984,
      "componentType": 5126,
      "count": 52,
      "max": [
        39.067409515380859,
        12.678911209106445,
        -25.439617156982422
      ],
      "min": [
        -53.185825347900391,
        -28.741527557373047,
        -33.170547485351562
      ],
      "type": "VEC3"
    },
    {
      "bufferView": 1,
      "byteOffset": 22608,
      "componentType": 5126,
      "count": 52,
      "max": [
        0.99990969896316528,
        0.98645198345184326,
        0.98474454879760742
      ],
      "min": [
        -0.85089492797851562,
        -0.96760672330856323,
        -0.99238884449005127
      ],
      "type": "VEC3"
    },
    {
      "bufferView": 2,
      "byteOffset": 14656,
      "componentType": 5126,
      "count": 52,
      "max": [
        0.99996817111968994,
        0.9894256591796875,
        0.20673708617687225,
        -1
      ],
      "min": [
        -1,
        -0.84547322988510132,
        -0.14360374212265015,
        -1
      ],
      "type": "VEC4"
    },
    {
      "bufferView": 0,
      "byteOffset": 9072,
      "componentType": 5125,
      "count": 132,
      "max": [
        51
      ],
      "min": [
        0
      ],
      "type": "SCALAR"
    },
    {
      "bufferView": 1,
      "byteOffset": 23232,
      "componentType": 5126,
      "count": 52,
      "max": [
        39.067409515380859,
        12.678911209106445,
        -25.439617156982422
      ],
      "min": [
        -53.185825347900391,
        -28.741527557373047,
        -33.170547485351562
      ],
      "type": "VEC3"
    },
    {
      "bufferView": 1,
      "byteOffset": 23856,
      "componentType": 5126,
      "count": 52,
      "max": [
        0.99990969896316528,
        0.98645198345184326,
        0.98474454879760742
      ],
      "min": [
        -0.85089492797851562,
        -0.96760672330856323,
        -0.99238884449005127
      ],
      "type": "VEC3"
    },
    {
      "bufferView": 2,
      "byteOffset": 15488,
      "componentType": 5126,
      "count": 52,
      "max": [
        0.99996817111968994,
        0.9894256591796875,
        0.20673708617687225,
        -1
      ],
      "min": [
        -1,
        -0.84547322988510132,
        -0.14360374212265015,
        -1
      ],
      "type": "VEC4"
    },
    {
      "bufferView": 0,
      "byteOffset": 9600,
      "componentType": 5125,
      "count": 132,
      "max": [
        51
      ],
      "min": [
        0
      ],
      "type": "SCALAR"
    },
    {
      "bufferView": 1,
      "byteOffset": 24480,
      "componentType": 5126,
      "count": 512,
      "max": [
        40.114822387695312,
        -15.195777893066406,
        88.926826477050781
      ],
      "min": [
        -40.114788055419922,
        -108.66783142089844,
        -200.50302124023438
      ],
      "type": "VEC3"
    },
    {
      "bufferView": 1,
      "byteOffset": 30624,
      "componentType": 5126,
      "count": 512,
      "max": [
        1,
        1,
        1
      ],
      "min": [
        -1,
        -1,
        -1
      ],
      "type": "VEC3"
    },
    {
      "bufferView": 2,
      "byteOffset": 16320,
      "componentType": 5126,
      "count": 512,
      "max": [
        1,
        1,
        0.39349287748336792,
        1
      ],
      "min": [
        -1,
        -1,
        -0.28947532176971436,
        -1
      ],
      "type": "VEC4"
    },
    {
      "bufferView": 0,
      "byteOffset": 10128,
      "componentType": 5125,
      "count": 1488,
      "max": [
        511
      ],
      "min": [
        0
      ],
      "type": "SCALAR"
    },
    {
      "bufferView": 1,
      "byteOffset": 36768,
      "componentType": 5126,
      "count": 1239,
      "max": [
        21.634237289428711,
        45.980579376220703,
        -26.744888305664062
      ],
      "min": [
        -21.63422966003418,
        -10.262447357177734,
        -184.83775329589844
      ],
      "type": "VEC3"
    },
    {
      "bufferView": 1,
      "byteOffset": 51636,
      "componentType": 5126,
      "count": 1239,
      "max": [
        0.99999749660491943,
        0.99998223781585693,
        1
      ],
      "min": [
        -0.99999749660491943,
        -0.99999749660491943,
        -1
      ],
      "type": "VEC3"
    },
    {
      "bufferView": 2,
      "byteOffset": 24512,
      "componentType": 5126,
      "count": 1239,
      "max": [
        1,
        0.99999988079071045,
        0.99675720930099487,
        1
      ],
      "min": [
        -1,
        -1,
        -0.99675720930099487,
        -1
      ],
      "type": "VEC4"
    },
    {
      "bufferView": 0,
      "byteOffset": 16080,
      "componentType": 5125,
      "count": 2796,
      "max": [
        1238
      ],
      "min": [
        0
      ],
      "type": "SCALAR"
    },
    {
      "bufferView": 1,
      "byteOffset": 66504,
      "componentType": 5126,
      "count": 753,
      "max": [
        -100.21910858154297,
        25.90565299987793,
        115.63852691650391
      ],
      "min": [
        -145.76458740234375,
        -19.639837265014648,
        -132.87545776367188
      ],
      "type": "VEC3"
    },
    {
      "bufferView": 1,
      "byteOffset": 75540,
      "componentType": 5126,
      "count": 753,
      "max": [
        1,
        1,
        1
      ],
      "min": [
        -1,
        -1,
        -1
      ],
      "type": "VEC3"
    },
    {
      "bufferView": 2,
      "byteOffset": 44336,
      "componentType": 5126,
      "count": 753,
      "max": [
        1,
        1,
        0.97743970155715942,
        1
      ],
      "min": [
        -1,
        -1,
        -0.98071807622909546,
        1
      ],
      "type": "VEC4"
    },
    {
      "bufferView": 0,
      "byteOffset": 27264,
      "componentType": 5125,
      "count": 2160,
      "max": [
        752
      ],
      "min": [
        0
      ],
      "type": "SCALAR"
    },
    {
      "bufferView": 1,
      "byteOffset": 84576,
      "componentType": 5126,
      "count": 1239,
      "max": [
        21.634237289428711,
        45.980579376220703,
        -26.744888305664062
      ],
      "min": [
        -21.63422966003418,
        -10.262447357177734,
        -184.83775329589844
      ],
      "type": "VEC3"
    },
    {
      "bufferView": 1,
      "byteOffset": 99444,
      "componentType": 5126,
      "count": 1239,
      "max": [
        0.99999749660491943,
        0.99998223781585693,
        1
      ],
      "min": [
        -0.99999749660491943,
        -0.99999749660491943,
        -1
      ],
      "type": "VEC3"
    },
    {
      "bufferView": 2,
      "byteOffset": 56384,
      "componentType": 5126,
      "count": 1239,
      "max": [
        1,
        0.99999988079071045,
        0.99675720930099487,
        1
      ],
      "min": [
        -1,
        -1,
        -0.99675720930099487,
        -1
      ],
      "type": "VEC4"
    },
    {
      "bufferView": 0,
      "byteOffset": 35904,
      "componentType": 5125,
      "count": 2796,
      "max": [
        1238
      ],
      "min": [
        0
      ],
      "type": "SCALAR"
    },
    {
      "bufferView": 1,
      "byteOffset": 114312,
      "componentType": 5126,
      "count": 753,
      "max": [
        -100.21910858154297,
        25.90565299987793,
        115.63852691650391
      ],
      "min": [
        -145.76458740234375,
        -19.639837265014648,
        -132.87545776367188
      ],
      "type": "VEC3"
    },
    {
      "bufferView": 1,
      "byteOffset": 123348,
      "componentType": 5126,
      "count": 753,
      "max": [
        1,
        1,
        1
      ],
      "min": [
        -1,
        -1,
        -1
      ],
      "type": "VEC3"
    },
    {
      "bufferView": 2,
      "byteOffset": 76208,
      "componentType": 5126,
      "count": 753,
      "max": [
        1,
        1,
        0.97743970155715942,
        1
      ],
      "min": [
        -1,
        -1,
        -0.98071807622909546,
        1
      ],
      "type": "VEC4"
    },
    {
      "bufferView": 0,
      "byteOffset": 47088,
      "componentType": 5125,
      "count": 2160,
      "max": [
        752
      ],
      "min": [
        0
      ],
      "type": "SCALAR"
    },
    {
      "bufferView": 1,
      "byteOffset": 132384,
      "componentType": 5126,
      "count": 2217,
      "max": [
        269.71200561523438,
        63.973075866699219,
        309.56698608398438
      ],
      "min": [
        -269.71200561523438,
        -59.222412109375,
        -578.68841552734375
      ],
      "type": "VEC3"
    },
    {
      "bufferView": 1,
      "byteOffset": 158988,
      "componentType": 5126,
      "count": 2217,
      "max": [
        1,
        1,
        1
      ],
      "min": [
        -1,
        -1,
        -1
      ],
      "type": "VEC3"
    },
    {
      "bufferView": 2,
      "byteOffset": 88256,
      "componentType": 5126,
      "count": 2217,
      "max": [
        0.99821782112121582,
        0.52826583385467529,
        1,
        1
      ],
      "min": [
        -0.99623149633407593,
        -1,
        -0.99995088577270508,
        -1
      ],
      "type": "VEC4"
    },
    {
      "bufferView": 0,
      "byteOffset": 55728,
      "componentType": 5125,
      "count": 3669,
      "max": [
        2216
      ],
      "min": [
        0
      ],
      "type": "SCALAR"
    }
  ],
  "asset": {
    "extras": {
      "author": "sky4gj (https://sketchfab.com/sky4gj)",
      "license": "CC-BY-4.0 (http://creativecommons.org/licenses/by/4.0/)",
      "source": "https://sketchfab.com/models/f0730ad3ea22432ba72e3cb29064f995",
      "title": "F16 Low Poly"
    },
    "generator": "Sketchfab-3.18.7",
    "version": "2.0"
  },
  "bufferViews": [
    {
      "buffer": 0,
      "byteLength": 70404,
      "byteOffset": 0,
      "name": "floatBufferViews",
      "target": 34963
    },
    {
      "buffer": 0,
      "byteLength": 185592,
      "byteOffset": 70404,
      "byteStride": 12,
      "name": "floatBufferViews",
      "target": 34962
    },
    {
      "buffer": 0,
      "byteLength": 123728,
      "byteOffset": 255996,
      "byteStride": 16,
      "name": "floatBufferViews",
      "target": 34962
    }
  ],
  "buffers": [
    {
      "byteLength": 379724,
      "uri": "scene.bin"
    }
  ],
  "materials": [
    {
      "doubleSided": true,
      "emissiveFactor": [
        0,
        0,
        0
      ],
      "name": "12_-_Default",
      "pbrMetallicRoughness": {
        "baseColorFactor": [
          1,
          1,
          1,
          1
        ],
        "metallicFactor": 0,
        "roughnessFactor": 0.59999999999999998
      }
    }
  ],
  "meshes": [
    {
      "name": "Box001_12 - Default_0",
      "primitives": [
        {
          "attributes": {
            "NORMAL": 1,
            "POSITION": 0,
            "TANGENT": 2
          },
          "indices": 3,
          "material": 0,
          "mode": 4
        }
      ]
    },
    {
      "name": "Sphere003_12 - Default_0",
      "primitives": [
        {
          "attributes": {
            "NORMAL": 5,
            "POSITION": 4,
            "TANGENT": 6
          },
          "indices": 7,
          "material": 0,
          "mode": 4
        }
      ]
    },
    {
      "name": "Box002_12 - Default_0",
      "primitives": [
        {
          "attributes": {
            "NORMAL": 9,
            "POSITION": 8,
            "TANGENT": 10
          },
          "indices": 11,
          "material": 0,
          "mode": 4
        }
      ]
    },
    {
      "name": "Box003_12 - Default_0",
      "primitives": [
        {
          "attributes": {
            "NORMAL": 13,
            "POSITION": 12,
            "TANGENT": 14
          },
          "indices": 15,
          "material": 0,
          "mode": 4
        }
      ]
    },
    {
      "name": "Sphere001_12 - Default_0",
      "primitives": [
        {
          "attributes": {
            "NORMAL": 17,
            "POSITION": 16,
            "TANGENT": 18
          },
          "indices": 19,
          "material": 0,
          "mode": 4
        }
      ]
    },
    {
      "name": "Capsule001_12 - Default_0",
      "primitives": [
        {
          "attributes": {
            "NORMAL": 21,
            "POSITION": 20,
            "TANGENT": 22
          },
          "indices": 23,
          "material": 0,
          "mode": 4
        }
      ]
    },
    {
      "name": "Sphere002_12 - Default_0",
      "primitives": [
        {
          "attributes": {
            "NORMAL": 25,
            "POSITION": 24,
            "TANGENT": 26
          },
          "indices": 27,
          "material": 0,
          "mode": 4
        }
      ]
    },
    {
      "name": "Capsule002_12 - Default_0",
      "primitives": [
        {
          "attributes": {
            "NORMAL": 29,
            "POSITION": 28,
            "TANGENT": 30
          },
          "indices": 31,
          "material": 0,
          "mode": 4
        }
      ]
    },
    {
      "name": "Sphere004_12 - Default_0",
      "primitives": [
        {
          "attributes": {
            "NORMAL": 33,
            "POSITION": 32,
            "TANGENT": 34
          },
          "indices": 35,
          "material": 0,
          "mode": 4
        }
      ]
    },
    {
      "name": "Tube001_12 - Default_0",
      "primitives": [
        {
          "attributes": {
            "NORMAL": 37,
            "POSITION": 36,
            "TANGENT": 38
          },
          "indices": 39,
          "material": 0,
          "mode": 4
        }
      ]
    }
  ],
  "nodes": [
    {
      "children": [
        1
      ],
      "name": "RootNode (gltf orientation matrix)",
      "rotation": [
        -0.70710678118654746,
        -0,
        -0,
        0.70710678118654757
      ]
    },
    {
      "children": [
        2
      ],
      "name": "RootNode (model correction matrix)"
    },
    {
      "children": [
        3
      ],
      "matrix": [
        1,
        0,
        0,
        0,
        0,
        0,
        1,
        0,
        0,
        -1,
        0,
        0,
        0,
        0,
        0,
        1
      ],
      "name": "282cb7ebce31476b8909535b05a4ceab.fbx"
    },
    {
      "children": [
        4
      ],
      "name": "RootNode"
    },
    {
      "children": [
        5,
        7,
        9,
        11,
        13,
        15,
        17,
        19,
        21,
        23
      ],
      "matrix": [
        1,
        0,
        0,
        0,
        0,
        2.2204460492503131e-16,
        -1,
        0,
        0,
        1,
        2.2204460492503131e-16,
        0,
        1.67108154296875,
        163.22006225585938,
        16.701278686523438,
        1
      ],
      "name": "Group001"
    },
    {
      "children": [
        6
      ],
      "matrix": [
        -4.3711388286737929e-08,
        0.99999999999999911,
        -1.1102230246251565e-16,
        0,
        4.371138834224908e-08,
        1.9984014443252818e-15,
        0.99999999999999911,
        0,
        0.99999999999999811,
        4.371138834224908e-08,
        -4.3711388286737929e-08,
        0,
        -18.457771301269531,
        263.87969970703125,
        2.497100830078125,
        1
      ],
      "name": "Box001"
    },
    {
      "mesh": 0,
      "name": "Box001_12 - Default_0"
    },
    {
      "children": [
        8
      ],
      "matrix": [
        -0.92719364166259766,
        -0,
        -0,
        -0,
        -0,
        -2.910613547259308e-07,
        0.92719364166255192,
        -0,
        -0,
        -0.92719364166255192,
        -2.910613547259308e-07,
        -0,
        105.20803833007812,
        49.863361358642578,
        -36.509376525878906,
        1
      ],
      "name": "Sphere003"
    },
    {
      "mesh": 1,
      "name": "Sphere003_12 - Default_0"
    },
    {
      "children": [
        10
      ],
      "matrix": [
        -4.3711388286737929e-08,
        0.99999999999999911,
        -1.1102230246251565e-16,
        0,
        4.371138834224908e-08,
        1.9984014443252818e-15,
        0.99999999999999911,
        0,
        0.99999999999999811,
        4.371138834224908e-08,
        -4.3711388286737929e-08,
        0,
        -1.6710914373397827,
        242.57792663574219,
        -102.35692596435547,
        1
      ],
      "name": "Box002"
    },
    {
      "mesh": 2,
      "name": "Box002_12 - Default_0"
    },
    {
      "children": [
        12
      ],
      "matrix": [
        -1.1924880638503055e-08,
        1,
        -1.1102230246251565e-16,
        -0,
        -1.1924880694014206e-08,
        -0,
        1,
        -0,
        -0.99999999999999989,
        -1.1924880694014206e-08,
        -1.1924880638503055e-08,
        -0,
        1.9621915817260742,
        242.57792663574219,
        -102.35692596435547,
        1
      ],
      "name": "Box003"
    },
    {
      "mesh": 3,
      "name": "Box003_12 - Default_0"
    },
    {
      "children": [
        14
      ],
      "matrix": [
        0.92719364166259766,
        0,
        0,
        0,
        0,
        -1.5105902646846887e-07,
        0.92719364166258544,
        0,
        0,
        -0.92719364166258544,
        -1.5105902646846887e-07,
        0,
        -108.17118072509766,
        49.863361358642578,
        -36.509376525878906,
        1
      ],
      "name": "Sphere001"
    },
    {
      "mesh": 4,
      "name": "Sphere001_12 - Default_0"
    },
    {
      "children": [
        16
      ],
      "matrix": [
        1,
        0,
        0,
        0,
        0,
        -1.6292068472090193e-07,
        0.99999999999998679,
        0,
        0,
        -0.99999999999998679,
        -1.6292068472090193e-07,
        0,
        -184.95783996582031,
        16.701274871826172,
        -97.49627685546875,
        1
      ],
      "name": "Capsule001"
    },
    {
      "mesh": 5,
      "name": "Capsule001_12 - Default_0"
    },
    {
      "children": [
        18
      ],
      "matrix": [
        1,
        0,
        0,
        0,
        0,
        -1.6292068472090193e-07,
        0.99999999999998679,
        0,
        0,
        -0.99999999999998679,
        -1.6292068472090193e-07,
        0,
        -158.71377563476562,
        116.08500671386719,
        -53.868400573730469,
        1
      ],
      "name": "Sphere002"
    },
    {
      "mesh": 6,
      "name": "Sphere002_12 - Default_0"
    },
    {
      "children": [
        20
      ],
      "matrix": [
        -1,
        -0,
        -0,
        -0,
        -0,
        -3.1391647348222307e-07,
        0.99999999999995071,
        -0,
        -0,
        -0.99999999999995071,
        -3.1391647348222307e-07,
        -0,
        181.99470520019531,
        16.701274871826172,
        -97.49627685546875,
        1
      ],
      "name": "Capsule002"
    },
    {
      "mesh": 7,
      "name": "Capsule002_12 - Default_0"
    },
    {
      "children": [
        22
      ],
      "matrix": [
        -1,
        -0,
        -0,
        -0,
        -0,
        -3.1391647348222307e-07,
        0.99999999999995071,
        -0,
        -0,
        -0.99999999999995071,
        -3.1391647348222307e-07,
        -0,
        158.71377563476562,
        116.08500671386719,
        -53.868400573730469,
        1
      ],
      "name": "Sphere004"
    },
    {
      "mesh": 8,
      "name": "Sphere004_12 - Default_0"
    },
    {
      "children": [
        24
      ],
      "matrix": [
        1,
        0,
        0,
        0,
        0,
        -1.6292068472090193e-07,
        0.99999999999998679,
        0,
        0,
        -0.99999999999998679,
        -1.6292068472090193e-07,
        0,
        0.049303770065307617,
        -149.07595825195312,
        -49.563545227050781,
        1
      ],
      "name": "Tube001"
    },
    {
      "mesh": 9,
      "name": "Tube001_12 - Default_0"
    }
  ],
  "scene": 0,
  "scenes": [
    {
      "name": "OSG_Scene",
      "nodes": [
        0
      ]
    }
  ]
}

